<svg id="Layer_1" data-name="Layer 1" xmlns="http://www.w3.org/2000/svg" viewBox="0 0 254.03 164.14"><defs><style>.cls-1,.cls-3{fill:#f37021;}.cls-1{fill-rule:evenodd;}.cls-2{fill:#76b043;}.cls-4{fill:#fff;}</style></defs><title>logo</title><path class="cls-1" d="M242,140a9.58,9.58,0,0,1,7.26,2.79,9.82,9.82,0,0,1-2.71,16,9.87,9.87,0,0,1-13.75-6.49,10.27,10.27,0,0,1,.45-6.27,9.71,9.71,0,0,1,5.64-5.41A10,10,0,0,1,242,140Zm-6.13,4.15a8.69,8.69,0,0,0,.77,12.22,8.73,8.73,0,0,0,6.44,2.11,8.16,8.16,0,0,0,5.77-2.88,8.4,8.4,0,0,0,2.21-6.45,8.6,8.6,0,0,0-2.88-5.77,8.79,8.79,0,0,0-6.49-2.16A8.43,8.43,0,0,0,235.85,144.13Z"/><path class="cls-1" d="M241.3,146.43a5.49,5.49,0,0,1,0,1.17h-2c-.1,1.79,0,3.77,0,5.63a7.39,7.39,0,0,1-1.35,0v-5.55a18.31,18.31,0,0,0-2,0,5.53,5.53,0,0,1,0-1.17Z"/><path class="cls-1" d="M244.23,146.43c.47,1.46.79,3.08,1.27,4.55.42-1.5.81-3,1.21-4.55h2v6.8a6.42,6.42,0,0,1-1.26,0v-5.14c-.5,1.68-.88,3.48-1.35,5.18h-1.31c-.39-1.74-.89-3.37-1.26-5.13-.21,1.53,0,3.45-.09,5.13a6.42,6.42,0,0,1-1.26,0v-6.63a.11.11,0,0,1,.08-.13Z"/><path class="cls-2" d="M28,142.63a31.62,31.62,0,0,1-9.37,1.58c-5.12,0-8.82-1.29-11.4-3.75a14.07,14.07,0,0,1-4-10.24c0-9.32,6.82-14.65,16-14.65a20.09,20.09,0,0,1,7.78,1.34L25.75,122a14.81,14.81,0,0,0-6.49-1.2c-5.29,0-9.32,3-9.32,9.07,0,5.83,3.66,9.2,8.86,9.2a9.65,9.65,0,0,0,3.08-.38v-5.9H17.55v-5H28v14.78Z"/><path class="cls-2" d="M44.86,144.38c-8.29,0-13.2-6.29-13.2-14.28,0-8.41,5.41-14.69,13.65-14.69,8.62,0,13.32,6.45,13.32,14.19,0,9.24-5.54,14.78-13.73,14.78Zm.29-5c4.28,0,6.73-4,6.73-9.53,0-5-2.37-9.37-6.73-9.37s-6.83,4.25-6.83,9.49,2.54,9.41,6.78,9.41Z"/><path class="cls-2" d="M74.7,144.38c-8.28,0-13.2-6.29-13.2-14.28,0-8.41,5.42-14.69,13.66-14.69,8.61,0,13.31,6.45,13.31,14.19,0,9.24-5.53,14.78-13.73,14.78Zm.29-5c4.29,0,6.74-4,6.74-9.53,0-5-2.37-9.37-6.74-9.37s-6.83,4.25-6.83,9.49,2.54,9.41,6.78,9.41Z"/><path class="cls-2" d="M92.64,116.28a51.81,51.81,0,0,1,8.53-.62c5.38,0,8.88.87,11.54,2.91,2.92,2.17,4.75,5.66,4.75,10.65,0,5.37-2,9.08-4.63,11.36-3,2.46-7.49,3.63-13,3.63a53.9,53.9,0,0,1-7.2-.42ZM99,139.13a11.36,11.36,0,0,0,2.2.13c5.79,0,9.58-3.13,9.58-9.83,0-6-3.41-8.9-8.91-8.9a13.08,13.08,0,0,0-2.87.25Z"/><path class="cls-3" d="M130.07,115.87h17.1v5.2H136.4v6.41h10.07v5.16H136.4v11.28h-6.33v-28Z"/><path class="cls-3" d="M163.87,144.38c-8.29,0-13.2-6.29-13.2-14.28,0-8.41,5.41-14.69,13.65-14.69,8.62,0,13.32,6.45,13.32,14.19,0,9.24-5.53,14.78-13.73,14.78Zm.29-5c4.28,0,6.74-4,6.74-9.53,0-5-2.37-9.37-6.74-9.37s-6.83,4.25-6.83,9.49,2.54,9.41,6.78,9.41Z"/><path class="cls-3" d="M193.71,144.38c-8.28,0-13.19-6.29-13.19-14.28,0-8.41,5.41-14.69,13.65-14.69,8.61,0,13.32,6.45,13.32,14.19,0,9.24-5.54,14.78-13.74,14.78Zm.29-5c4.29,0,6.74-4,6.74-9.53,0-5-2.37-9.37-6.74-9.37s-6.82,4.25-6.82,9.49,2.53,9.41,6.78,9.41Z"/><path class="cls-3" d="M211.65,116.28a51.81,51.81,0,0,1,8.53-.62c5.37,0,8.87.87,11.53,2.91,2.91,2.17,4.74,5.66,4.74,10.65,0,5.37-1.95,9.08-4.62,11.36-3,2.46-7.49,3.63-13,3.63a53.9,53.9,0,0,1-7.2-.42V116.28ZM218,139.13a11.36,11.36,0,0,0,2.2.13c5.78,0,9.58-3.13,9.58-9.83,0-6-3.42-8.9-8.91-8.9a13.08,13.08,0,0,0-2.87.25v18.35Z"/><path class="cls-3" d="M166,150s12.93,18,28,0c0,0,8.1-4.23,3.87,4,0,0-18.89,20.32-35.77-1.24C162.1,152.76,159.94,146,166,150Z"/><path class="cls-2" d="M152.18,101c-1.75-16.44-14.68-29.35-30.67-30.22V68.65c1.11-.37,1.87-1.1,1.87-1.93,0-1.21-1.62-2.19-3.61-2.19s-3.6,1-3.6,2.19c0,.89.86,1.65,2.1,2v2.07C102.19,71.57,89.16,84.51,87.4,101a2.81,2.81,0,0,0,.62,5.55H151.5a2.81,2.81,0,0,0,.68-5.53Z"/><path class="cls-4" d="M120.66,73.67s24.52,1.7,28.27,27.24h-4.22S141.6,78.35,120.66,73.67Z"/><path class="cls-3" d="M184.56,39.31l-23.6-14v-12h-9.88v6.18C137.14,11.17,123.91,3.3,122.84,2.6a7,7,0,0,0-5.93,0c-2.34,1.51-61.74,36.71-61.74,36.71s-3.16,2.06-3.3,5.22S56.41,48,56.41,48L75,48.1l.14,55.55s.27,4.16,3.85,4.21a4.53,4.53,0,0,0,4.69-4.1V99.24l-.14-55.67a4.38,4.38,0,0,0-4-4.54H72.63l44-26a7,7,0,0,1,6.48,0l44,26h-6.87a4.38,4.38,0,0,0-4,4.54l-.13,55.67,0,4.52a4.53,4.53,0,0,0,4.69,4.1c3.58,0,3.85-4.21,3.85-4.21l.13-55.55L183.32,48s4.68-.28,4.54-3.44S184.56,39.31,184.56,39.31Z"/><rect class="cls-3" x="111.04" y="41.81" width="8.04" height="7.89"/><rect class="cls-3" x="121.1" y="41.81" width="8.04" height="7.89"/><path class="cls-3" d="M119.08,39.88h-8s1.64-7,8-7.9Z"/><path class="cls-3" d="M121.21,39.88h8s-1.64-7-8-7.9Z"/><path class="cls-3" d="M9.68,102.29l-1,3.64H5.37L9.68,91.74h4.21l4.43,14.19H14.84l-1.09-3.64Zm3.6-2.4-.88-3c-.25-.84-.51-1.89-.72-2.73h0c-.21.84-.42,1.91-.65,2.73l-.84,3Z"/><path class="cls-3" d="M20,99.09c0-1.35-.05-2.48-.09-3.45h2.78l.15,1.43h0a4,4,0,0,1,3.43-1.66c2.26,0,4.28,2,4.28,5.24,0,3.75-2.38,5.52-4.68,5.52A3.2,3.2,0,0,1,23.2,105h0v5.11H20v-11Zm3.2,2.42a3.51,3.51,0,0,0,.06.68,1.94,1.94,0,0,0,1.87,1.51c1.39,0,2.21-1.16,2.21-2.9s-.73-2.89-2.16-2.89a2,2,0,0,0-1.92,1.62,2.62,2.62,0,0,0-.06.57v1.41Z"/><path class="cls-3" d="M32.55,99.09c0-1.35,0-2.48-.09-3.45h2.78l.15,1.43h0a4,4,0,0,1,3.43-1.66c2.25,0,4.28,2,4.28,5.24,0,3.75-2.38,5.52-4.68,5.52A3.2,3.2,0,0,1,35.79,105h0v5.11h-3.2v-11Zm3.2,2.42a3.51,3.51,0,0,0,.06.68,1.94,1.94,0,0,0,1.87,1.51c1.39,0,2.21-1.16,2.21-2.9s-.73-2.89-2.16-2.89a2,2,0,0,0-1.92,1.62,2.62,2.62,0,0,0-.06.57v1.41Z"/></svg>