<svg id="Layer_1" data-name="Layer 1" xmlns="http://www.w3.org/2000/svg" viewBox="0 0 254.03 164.14"><defs><style>.cls-1,.cls-3{fill:#f37021;}.cls-1{fill-rule:evenodd;}.cls-2{fill:#76b043;}.cls-4{fill:#fff;}</style></defs>
<path class="cls-2" d="M28,142.63a31.62,31.62,0,0,1-9.37,1.58c-5.12,0-8.82-1.29-11.4-3.75a14.07,14.07,0,0,1-4-10.24c0-9.32,6.82-14.65,16-14.65a20.09,20.09,0,0,1,7.78,1.34L25.75,122a14.81,14.81,0,0,0-6.49-1.2c-5.29,0-9.32,3-9.32,9.07,0,5.83,3.66,9.2,8.86,9.2a9.65,9.65,0,0,0,3.08-.38v-5.9H17.55v-5H28v14.78Z"/><path class="cls-2" d="M44.86,144.38c-8.29,0-13.2-6.29-13.2-14.28,0-8.41,5.41-14.69,13.65-14.69,8.62,0,13.32,6.45,13.32,14.19,0,9.24-5.54,14.78-13.73,14.78Zm.29-5c4.28,0,6.73-4,6.73-9.53,0-5-2.37-9.37-6.73-9.37s-6.83,4.25-6.83,9.49,2.54,9.41,6.78,9.41Z"/><path class="cls-2" d="M74.7,144.38c-8.28,0-13.2-6.29-13.2-14.28,0-8.41,5.42-14.69,13.66-14.69,8.61,0,13.31,6.45,13.31,14.19,0,9.24-5.53,14.78-13.73,14.78Zm.29-5c4.29,0,6.74-4,6.74-9.53,0-5-2.37-9.37-6.74-9.37s-6.83,4.25-6.83,9.49,2.54,9.41,6.78,9.41Z"/><path class="cls-2" d="M92.64,116.28a51.81,51.81,0,0,1,8.53-.62c5.38,0,8.88.87,11.54,2.91,2.92,2.17,4.75,5.66,4.75,10.65,0,5.37-2,9.08-4.63,11.36-3,2.46-7.49,3.63-13,3.63a53.9,53.9,0,0,1-7.2-.42ZM99,139.13a11.36,11.36,0,0,0,2.2.13c5.79,0,9.58-3.13,9.58-9.83,0-6-3.41-8.9-8.91-8.9a13.08,13.08,0,0,0-2.87.25Z"/><path class="cls-3" d="M130.07,115.87h17.1v5.2H136.4v6.41h10.07v5.16H136.4v11.28h-6.33v-28Z"/><path class="cls-3" d="M163.87,144.38c-8.29,0-13.2-6.29-13.2-14.28,0-8.41,5.41-14.69,13.65-14.69,8.62,0,13.32,6.45,13.32,14.19,0,9.24-5.53,14.78-13.73,14.78Zm.29-5c4.28,0,6.74-4,6.74-9.53,0-5-2.37-9.37-6.74-9.37s-6.83,4.25-6.83,9.49,2.54,9.41,6.78,9.41Z"/><path class="cls-3" d="M193.71,144.38c-8.28,0-13.19-6.29-13.19-14.28,0-8.41,5.41-14.69,13.65-14.69,8.61,0,13.32,6.45,13.32,14.19,0,9.24-5.54,14.78-13.74,14.78Zm.29-5c4.29,0,6.74-4,6.74-9.53,0-5-2.37-9.37-6.74-9.37s-6.82,4.25-6.82,9.49,2.53,9.41,6.78,9.41Z"/><path class="cls-3" d="M211.65,116.28a51.81,51.81,0,0,1,8.53-.62c5.37,0,8.87.87,11.53,2.91,2.91,2.17,4.74,5.66,4.74,10.65,0,5.37-1.95,9.08-4.62,11.36-3,2.46-7.49,3.63-13,3.63a53.9,53.9,0,0,1-7.2-.42V116.28ZM218,139.13a11.36,11.36,0,0,0,2.2.13c5.78,0,9.58-3.13,9.58-9.83,0-6-3.42-8.9-8.91-8.9a13.08,13.08,0,0,0-2.87.25v18.35Z"/>
<path class="cls-3" d="M166,150s12.93,18,28,0c0,0,8.1-4.23,3.87,4,0,0-18.89,20.32-35.77-1.24C162.1,152.76,159.94,146,166,150Z"/>
<path class="cls-3" d="M9.68,102.29l-1,3.64H5.37L9.68,91.74h4.21l4.43,14.19H14.84l-1.09-3.64Zm3.6-2.4-.88-3c-.25-.84-.51-1.89-.72-2.73h0c-.21.84-.42,1.91-.65,2.73l-.84,3Z"/>
<path class="cls-3" d="M20,99.09c0-1.35-.05-2.48-.09-3.45h2.78l.15,1.43h0a4,4,0,0,1,3.43-1.66c2.26,0,4.28,2,4.28,5.24,0,3.75-2.38,5.52-4.68,5.52A3.2,3.2,0,0,1,23.2,105h0v5.11H20v-11Zm3.2,2.42a3.51,3.51,0,0,0,.06.68,1.94,1.94,0,0,0,1.87,1.51c1.39,0,2.21-1.16,2.21-2.9s-.73-2.89-2.16-2.89a2,2,0,0,0-1.92,1.62,2.62,2.62,0,0,0-.06.57v1.41Z"/><path class="cls-3" d="M32.55,99.09c0-1.35,0-2.48-.09-3.45h2.78l.15,1.43h0a4,4,0,0,1,3.43-1.66c2.25,0,4.28,2,4.28,5.24,0,3.75-2.38,5.52-4.68,5.52A3.2,3.2,0,0,1,35.79,105h0v5.11h-3.2v-11Zm3.2,2.42a3.51,3.51,0,0,0,.06.68,1.94,1.94,0,0,0,1.87,1.51c1.39,0,2.21-1.16,2.21-2.9s-.73-2.89-2.16-2.89a2,2,0,0,0-1.92,1.62,2.62,2.62,0,0,0-.06.57v1.41Z"/></svg>